<svg width="20" height="14" viewBox="0 0 20 14" fill="none" xmlns="http://www.w3.org/2000/svg">
<path d="M12.1504 6.10469C12.2101 6.42018 12.2527 6.73568 12.2527 7.14492C12.2527 10.7176 9.85674 13.25 6.25 13.25C2.79674 13.25 0 10.4533 0 7C0 3.54671 2.79674 0.75 6.25 0.75C7.93828 0.75 9.34515 1.3639 10.4366 2.38711L8.73975 4.01569C8.2793 3.5723 7.4693 3.05218 6.25 3.05218C4.11836 3.05218 2.37891 4.81719 2.37891 7C2.37891 9.18281 4.11836 10.9478 6.25 10.9478C8.72269 10.9478 9.65212 9.16576 9.79704 8.25339H6.25V6.10465H12.1504V6.10469ZM18.1858 6.31423V4.5H16.3628V6.31423H14.5486V8.13717H16.3628V9.9514H18.1858V8.13717H20V6.31423H18.1858Z" fill="#888888"/>
</svg>
