<svg width="20" height="20" viewBox="0 0 20 20" fill="none" xmlns="http://www.w3.org/2000/svg">
<path d="M10.0022 4.87361C7.16453 4.87361 4.87563 7.16251 4.87563 10.0002C4.87563 12.8379 7.16453 15.1268 10.0022 15.1268C12.8399 15.1268 15.1288 12.8379 15.1288 10.0002C15.1288 7.16251 12.8399 4.87361 10.0022 4.87361ZM10.0022 13.3332C8.16843 13.3332 6.66927 11.8385 6.66927 10.0002C6.66927 8.16195 8.16397 6.66725 10.0022 6.66725C11.8405 6.66725 13.3352 8.16195 13.3352 10.0002C13.3352 11.8385 11.836 13.3332 10.0022 13.3332ZM16.5343 4.6639C16.5343 5.32871 15.9989 5.85966 15.3385 5.85966C14.6737 5.85966 14.1428 5.32425 14.1428 4.6639C14.1428 4.00356 14.6782 3.46814 15.3385 3.46814C15.9989 3.46814 16.5343 4.00356 16.5343 4.6639ZM19.9297 5.87751C19.8539 4.27573 19.488 2.85688 18.3146 1.68788C17.1456 0.518894 15.7267 0.153027 14.1249 0.0727147C12.4741 -0.020983 7.52593 -0.020983 5.87507 0.0727147C4.27775 0.148565 2.8589 0.514432 1.68544 1.68342C0.511991 2.85241 0.150586 4.27126 0.0702733 5.87305C-0.0234244 7.52391 -0.0234244 12.472 0.0702733 14.1229C0.146124 15.7247 0.511991 17.1435 1.68544 18.3125C2.8589 19.4815 4.27328 19.8474 5.87507 19.9277C7.52593 20.0214 12.4741 20.0214 14.1249 19.9277C15.7267 19.8519 17.1456 19.486 18.3146 18.3125C19.4835 17.1435 19.8494 15.7247 19.9297 14.1229C20.0234 12.472 20.0234 7.52838 19.9297 5.87751ZM17.797 15.8942C17.449 16.7688 16.7752 17.4425 15.8963 17.795C14.58 18.317 11.4568 18.1965 10.0022 18.1965C8.54769 18.1965 5.41997 18.3125 4.1082 17.795C3.23369 17.4469 2.55996 16.7732 2.20747 15.8942C1.68544 14.578 1.80591 11.4548 1.80591 10.0002C1.80591 8.54567 1.68991 5.41795 2.20747 4.10618C2.55549 3.23167 3.22922 2.55793 4.1082 2.20545C5.42443 1.68342 8.54769 1.80389 10.0022 1.80389C11.4568 1.80389 14.5845 1.68788 15.8963 2.20545C16.7708 2.55347 17.4445 3.2272 17.797 4.10618C18.319 5.42241 18.1985 8.54567 18.1985 10.0002C18.1985 11.4548 18.319 14.5825 17.797 15.8942Z" fill="#888888"/>
</svg>
