<svg width="60" height="60" viewBox="0 0 60 60" fill="none" xmlns="http://www.w3.org/2000/svg">
<g clip-path="url(#clip0_109_128)">
<path d="M60 30C60.0104 37.0816 57.5055 43.9368 52.9318 49.3433C52.7657 49.5405 52.5965 49.7346 52.4242 49.9277C50.3964 52.2083 48.0342 54.168 45.4183 55.7398C44.8183 56.1 44.2052 56.4395 43.5789 56.7582C43.5156 56.7903 43.4512 56.8225 43.3879 56.8537C43.3121 56.8921 43.2353 56.9294 43.1585 56.9668C41.5736 57.7425 39.9228 58.3755 38.2256 58.8582C38.0491 58.908 37.8723 58.9564 37.6952 59.0035C35.4625 59.5942 33.1691 59.9248 30.8606 59.9886C30.7401 59.9917 30.6218 59.9938 30.5076 59.9959C30.4671 59.9969 30.4277 59.998 30.3882 59.998C30.2585 59.999 30.1298 60 30 60C27.5672 60.0018 25.1432 59.708 22.7813 59.125C22.5446 59.0668 22.309 59.0056 22.0744 58.9412C20.8386 58.6038 19.6261 58.1867 18.4443 57.6924C17.8215 57.4329 17.2097 57.153 16.609 56.8526C16.473 56.7841 16.337 56.7156 16.2031 56.645C16.146 56.617 16.09 56.5869 16.0339 56.5578C12.8324 54.868 9.96128 52.6155 7.55814 49.908C7.39205 49.7222 7.22907 49.5333 7.06817 49.3433C4.42035 46.2039 2.44526 42.5544 1.2652 38.6206C0.085151 34.6869 -0.27473 30.5528 0.207852 26.4744C0.690434 22.3959 2.0052 18.46 4.07073 14.9103C6.13625 11.3606 8.90855 8.27281 12.2159 5.83808C12.3862 5.71247 12.5574 5.58791 12.7308 5.46645C12.7651 5.44258 12.7993 5.4187 12.8336 5.39483C15.8796 3.26119 19.2984 1.71725 22.9131 0.84292C23.1187 0.792055 23.3242 0.744306 23.5318 0.699669C27.4471 -0.156765 31.4934 -0.227686 35.4363 0.491017C35.6429 0.529426 35.8495 0.568872 36.055 0.611433C39.6374 1.34623 43.0541 2.73367 46.1346 4.70451C46.2031 4.74811 46.2716 4.79171 46.3401 4.83739C46.4782 4.92666 46.6163 5.01801 46.7522 5.1104C50.8329 7.85382 54.1759 11.5592 56.4862 15.8998C58.7965 20.2404 60.0033 25.0829 60 30V30Z" fill="#F2F2F2"/>
<path d="M22.422 45.5201L12.8335 46.3713L12.7307 46.3806V5.46644C12.765 5.44256 12.7992 5.41869 12.8335 5.39481C14.8318 3.99703 16.9935 2.84872 19.2705 1.97543L19.7605 8.73322L19.8051 9.3519L20.2899 16.0536L20.4393 18.1152L22.4044 45.2813L22.422 45.5201Z" fill="#CCCCCC"/>
<path d="M46.1347 4.7045C46.2032 4.74809 46.2717 4.79169 46.3402 4.83737V46.3806L46.1347 46.362L36.6499 45.5201L36.6675 45.2813L38.6326 18.1152L38.7821 16.0536L39.2669 9.3519L39.3115 8.73322L39.8253 1.64636C42.0412 2.41446 44.1589 3.44091 46.1347 4.7045V4.7045Z" fill="#CCCCCC"/>
<path d="M46.1345 4.7045V46.9474C46.1345 47.7581 45.576 48.4173 44.8888 48.4173H14.0792C13.5103 48.4173 13.0276 47.9647 12.8812 47.3471C12.8493 47.2162 12.8333 47.0821 12.8335 46.9474V5.39481C12.7992 5.41869 12.765 5.44256 12.7307 5.46644C12.5574 5.58789 12.3861 5.71246 12.2158 5.83806V46.9474C12.2066 47.5632 12.4366 48.1586 12.8574 48.6083C13.078 48.8395 13.3571 49.0066 13.665 49.092C13.8 49.1288 13.9393 49.1473 14.0792 49.1471H44.8888C45.0291 49.1472 45.1687 49.1287 45.304 49.092C46.1324 48.8689 46.7521 47.9927 46.7521 46.9474V5.11038C46.6162 5.01799 46.4781 4.92664 46.34 4.83737C46.2715 4.7917 46.203 4.7481 46.1345 4.7045Z" fill="#CCCCCC"/>
<path d="M46.4436 8.73363H12.5247V9.35221H46.4436V8.73363Z" fill="#CCCCCC"/>
<path d="M22.9131 0.842913C23.1186 0.792048 23.3242 0.744298 23.5318 0.699661V17.4965H22.9131V0.842913Z" fill="#CCCCCC"/>
<path d="M35.4363 0.490997C35.6429 0.529406 35.8495 0.568852 36.055 0.611413V17.4965H35.4363V0.490997Z" fill="#CCCCCC"/>
<path d="M50.3098 45.2813H9.68936C8.95097 45.2813 8.24283 45.5746 7.72071 46.0967C7.1986 46.6189 6.90527 47.327 6.90527 48.0654C6.90527 48.8038 7.1986 49.5119 7.72071 50.034C8.24283 50.5562 8.95097 50.8495 9.68936 50.8495H50.3098C50.7052 50.8496 51.096 50.7652 51.4562 50.6022C51.8164 50.4391 52.1376 50.201 52.3984 49.9038C52.5164 49.7695 52.6214 49.6242 52.7118 49.4699C52.7819 49.3516 52.8426 49.2281 52.8935 49.1003C53.0631 48.678 53.1265 48.2205 53.0781 47.7679C53.0297 47.3153 52.871 46.8815 52.616 46.5046C52.361 46.1276 52.0173 45.8189 51.6153 45.6057C51.2132 45.3924 50.7649 45.281 50.3098 45.2813V45.2813Z" fill="#CCCCCC"/>
<path d="M46.4437 16.0535H12.731V18.1155H46.4437V16.0535Z" fill="#CCCCCC"/>
<path d="M29.2781 15.4349H29.8967C30.0456 15.4349 30.1931 15.4643 30.3307 15.5212C30.4683 15.5782 30.5933 15.6618 30.6986 15.7671C30.8039 15.8724 30.8874 15.9974 30.9444 16.135C31.0014 16.2726 31.0308 16.4201 31.0308 16.569V16.569H28.144C28.144 16.2682 28.2635 15.9798 28.4762 15.7671C28.6889 15.5544 28.9773 15.4349 29.2781 15.4349H29.2781Z" fill="#CCCCCC"/>
<path d="M52.9318 49.3433C52.03 50.4118 51.0546 51.416 50.0127 52.3484H9.98715C8.94529 51.416 7.96991 50.4118 7.06812 49.3433H52.9318Z" fill="#3F3D56"/>
<path d="M33.351 38.9346H26.6119C26.5755 38.9342 26.5394 38.9398 26.5049 38.9512C26.4318 38.9738 26.3678 39.0193 26.3224 39.0809C26.277 39.1426 26.2526 39.2172 26.2527 39.2938V49.9401H33.7112V39.2938C33.7111 39.2465 33.7018 39.1998 33.6836 39.1561C33.6655 39.1125 33.639 39.0729 33.6055 39.0395C33.5721 39.0062 33.5324 38.9797 33.4887 38.9617C33.445 38.9437 33.3982 38.9345 33.351 38.9346ZM30.8004 44.1872C30.8007 44.3599 30.7437 44.5278 30.6385 44.6647C30.5381 44.7976 30.3985 44.8956 30.2394 44.9449C30.0803 44.9943 29.9098 44.9924 29.7518 44.9397C29.5938 44.887 29.4563 44.786 29.3588 44.651C29.2612 44.516 29.2085 44.3538 29.208 44.1872V42.9519C29.21 42.742 29.2947 42.5414 29.4438 42.3937C29.5929 42.2459 29.7943 42.1631 30.0042 42.1631C30.2141 42.1631 30.4155 42.2459 30.5646 42.3937C30.7138 42.5414 30.7985 42.742 30.8004 42.9519V44.1872Z" fill="#2F2E41"/>
<path d="M26.2297 49.5996V50.6263C26.2297 50.6795 26.2508 50.7306 26.2883 50.7683C26.3259 50.8061 26.3768 50.8274 26.4301 50.8277H33.5335C33.5867 50.8272 33.6376 50.8058 33.6751 50.7681C33.7126 50.7304 33.7337 50.6795 33.7339 50.6263V49.5996H26.2297Z" fill="#3F3D56"/>
<path d="M44.51 22.3204H15.7038C15.4563 22.3207 15.219 22.4191 15.0439 22.594C14.8688 22.769 14.7701 23.0061 14.7695 23.2536V42.6924C14.7697 42.9401 14.8682 43.1776 15.0434 43.3528C15.2185 43.528 15.4561 43.6265 15.7038 43.6266H44.51C44.7577 43.6265 44.9952 43.528 45.1704 43.3528C45.3455 43.1776 45.444 42.9401 45.4442 42.6924V23.2536C45.4437 23.0061 45.345 22.769 45.1699 22.594C44.9948 22.4191 44.7575 22.3207 44.51 22.3204V22.3204Z" fill="#3F3D56"/>
<path d="M44.2693 22.9951H15.9436C15.8111 22.9954 15.6841 23.0483 15.5905 23.1421C15.4969 23.2359 15.4443 23.363 15.4443 23.4955V42.4526C15.4446 42.5849 15.4972 42.7118 15.5908 42.8054C15.6844 42.899 15.8113 42.9517 15.9436 42.9519H44.2693C44.4016 42.9517 44.5285 42.899 44.6221 42.8054C44.7157 42.7118 44.7683 42.5849 44.7686 42.4526V23.4955C44.7685 23.363 44.716 23.2359 44.6224 23.1421C44.5288 23.0483 44.4018 22.9954 44.2693 22.9951V22.9951Z" fill="#F98826"/>
<path d="M39.0561 50.8111L38.7945 49.5685C38.7837 49.5179 38.7603 49.4707 38.7266 49.4314C38.6929 49.392 38.6498 49.3617 38.6014 49.3433C38.5664 49.3295 38.529 49.3225 38.4914 49.3225H22.1616C22.124 49.3225 22.0866 49.3295 22.0516 49.3433C22.0032 49.3617 21.9601 49.392 21.9264 49.4314C21.8927 49.4707 21.8694 49.5179 21.8585 49.5685L21.5969 50.8111C21.5875 50.8562 21.5882 50.9029 21.599 50.9476C21.6099 50.9924 21.6306 51.0343 21.6596 51.07C21.6886 51.1058 21.7253 51.1347 21.7669 51.1546C21.8085 51.1744 21.8539 51.1847 21.9 51.1848H38.7519C38.7982 51.185 38.8439 51.1748 38.8856 51.1548C38.9273 51.1349 38.9639 51.1057 38.9928 51.0696C39.0219 51.0339 39.0426 50.9922 39.0536 50.9475C39.0645 50.9028 39.0654 50.8562 39.0561 50.8111V50.8111Z" fill="#2F2E41"/>
<path d="M22.7496 49.5463H22.3319C22.3039 49.5463 22.2812 49.569 22.2812 49.597V49.807C22.2812 49.835 22.3039 49.8577 22.3319 49.8577H22.7496C22.7776 49.8577 22.8003 49.835 22.8003 49.807V49.597C22.8003 49.569 22.7776 49.5463 22.7496 49.5463Z" fill="#3F3D56"/>
<path d="M23.7877 49.5463H23.37C23.342 49.5463 23.3193 49.569 23.3193 49.597V49.807C23.3193 49.835 23.342 49.8577 23.37 49.8577H23.7877C23.8157 49.8577 23.8384 49.835 23.8384 49.807V49.597C23.8384 49.569 23.8157 49.5463 23.7877 49.5463Z" fill="#3F3D56"/>
<path d="M24.8258 49.5463H24.4081C24.3801 49.5463 24.3574 49.569 24.3574 49.597V49.807C24.3574 49.835 24.3801 49.8577 24.4081 49.8577H24.8258C24.8538 49.8577 24.8765 49.835 24.8765 49.807V49.597C24.8765 49.569 24.8538 49.5463 24.8258 49.5463Z" fill="#3F3D56"/>
<path d="M25.8639 49.5463H25.4462C25.4182 49.5463 25.3955 49.569 25.3955 49.597V49.807C25.3955 49.835 25.4182 49.8577 25.4462 49.8577H25.8639C25.8919 49.8577 25.9145 49.835 25.9145 49.807V49.597C25.9145 49.569 25.8919 49.5463 25.8639 49.5463Z" fill="#3F3D56"/>
<path d="M26.9019 49.5463H26.4843C26.4563 49.5463 26.4336 49.569 26.4336 49.597V49.807C26.4336 49.835 26.4563 49.8577 26.4843 49.8577H26.9019C26.9299 49.8577 26.9526 49.835 26.9526 49.807V49.597C26.9526 49.569 26.9299 49.5463 26.9019 49.5463Z" fill="#3F3D56"/>
<path d="M27.94 49.5463H27.5224C27.4944 49.5463 27.4717 49.569 27.4717 49.597V49.807C27.4717 49.835 27.4944 49.8577 27.5224 49.8577H27.94C27.968 49.8577 27.9907 49.835 27.9907 49.807V49.597C27.9907 49.569 27.968 49.5463 27.94 49.5463Z" fill="#3F3D56"/>
<path d="M28.9781 49.5463H28.5604C28.5325 49.5463 28.5098 49.569 28.5098 49.597V49.807C28.5098 49.835 28.5325 49.8577 28.5604 49.8577H28.9781C29.0061 49.8577 29.0288 49.835 29.0288 49.807V49.597C29.0288 49.569 29.0061 49.5463 28.9781 49.5463Z" fill="#3F3D56"/>
<path d="M30.016 49.5463H29.5983C29.5703 49.5463 29.5476 49.569 29.5476 49.597V49.807C29.5476 49.835 29.5703 49.8577 29.5983 49.8577H30.016C30.0439 49.8577 30.0666 49.835 30.0666 49.807V49.597C30.0666 49.569 30.0439 49.5463 30.016 49.5463Z" fill="#3F3D56"/>
<path d="M31.054 49.5463H30.6364C30.6084 49.5463 30.5857 49.569 30.5857 49.597V49.807C30.5857 49.835 30.6084 49.8577 30.6364 49.8577H31.054C31.082 49.8577 31.1047 49.835 31.1047 49.807V49.597C31.1047 49.569 31.082 49.5463 31.054 49.5463Z" fill="#3F3D56"/>
<path d="M32.0921 49.5463H31.6745C31.6465 49.5463 31.6238 49.569 31.6238 49.597V49.807C31.6238 49.835 31.6465 49.8577 31.6745 49.8577H32.0921C32.1201 49.8577 32.1428 49.835 32.1428 49.807V49.597C32.1428 49.569 32.1201 49.5463 32.0921 49.5463Z" fill="#3F3D56"/>
<path d="M33.1302 49.5463H32.7125C32.6846 49.5463 32.6619 49.569 32.6619 49.597V49.807C32.6619 49.835 32.6846 49.8577 32.7125 49.8577H33.1302C33.1582 49.8577 33.1809 49.835 33.1809 49.807V49.597C33.1809 49.569 33.1582 49.5463 33.1302 49.5463Z" fill="#3F3D56"/>
<path d="M34.1683 49.5463H33.7506C33.7226 49.5463 33.7 49.569 33.7 49.597V49.807C33.7 49.835 33.7226 49.8577 33.7506 49.8577H34.1683C34.1963 49.8577 34.2189 49.835 34.2189 49.807V49.597C34.2189 49.569 34.1963 49.5463 34.1683 49.5463Z" fill="#3F3D56"/>
<path d="M35.2064 49.5463H34.7887C34.7607 49.5463 34.738 49.569 34.738 49.597V49.807C34.738 49.835 34.7607 49.8577 34.7887 49.8577H35.2064C35.2344 49.8577 35.2571 49.835 35.2571 49.807V49.597C35.2571 49.569 35.2344 49.5463 35.2064 49.5463Z" fill="#3F3D56"/>
<path d="M36.2445 49.5463H35.8268C35.7988 49.5463 35.7761 49.569 35.7761 49.597V49.807C35.7761 49.835 35.7988 49.8577 35.8268 49.8577H36.2445C36.2725 49.8577 36.2952 49.835 36.2952 49.807V49.597C36.2952 49.569 36.2725 49.5463 36.2445 49.5463Z" fill="#3F3D56"/>
<path d="M37.2826 49.5463H36.8649C36.8369 49.5463 36.8142 49.569 36.8142 49.597V49.807C36.8142 49.835 36.8369 49.8577 36.8649 49.8577H37.2826C37.3106 49.8577 37.3332 49.835 37.3332 49.807V49.597C37.3332 49.569 37.3106 49.5463 37.2826 49.5463Z" fill="#3F3D56"/>
<path d="M38.3206 49.5463H37.903C37.875 49.5463 37.8523 49.569 37.8523 49.597V49.807C37.8523 49.835 37.875 49.8577 37.903 49.8577H38.3206C38.3486 49.8577 38.3713 49.835 38.3713 49.807V49.597C38.3713 49.569 38.3486 49.5463 38.3206 49.5463Z" fill="#3F3D56"/>
<path d="M22.7374 50.0653H22.3197C22.2917 50.0653 22.269 50.088 22.269 50.116V50.3261C22.269 50.354 22.2917 50.3767 22.3197 50.3767H22.7374C22.7654 50.3767 22.7881 50.354 22.7881 50.3261V50.116C22.7881 50.088 22.7654 50.0653 22.7374 50.0653Z" fill="#3F3D56"/>
<path d="M23.7755 50.0653H23.3578C23.3298 50.0653 23.3071 50.088 23.3071 50.116V50.3261C23.3071 50.354 23.3298 50.3767 23.3578 50.3767H23.7755C23.8035 50.3767 23.8262 50.354 23.8262 50.3261V50.116C23.8262 50.088 23.8035 50.0653 23.7755 50.0653Z" fill="#3F3D56"/>
<path d="M24.8136 50.0653H24.3959C24.3679 50.0653 24.3452 50.088 24.3452 50.116V50.3261C24.3452 50.354 24.3679 50.3767 24.3959 50.3767H24.8136C24.8416 50.3767 24.8642 50.354 24.8642 50.3261V50.116C24.8642 50.088 24.8416 50.0653 24.8136 50.0653Z" fill="#3F3D56"/>
<path d="M25.8517 50.0653H25.434C25.406 50.0653 25.3833 50.088 25.3833 50.116V50.3261C25.3833 50.354 25.406 50.3767 25.434 50.3767H25.8517C25.8796 50.3767 25.9023 50.354 25.9023 50.3261V50.116C25.9023 50.088 25.8796 50.0653 25.8517 50.0653Z" fill="#3F3D56"/>
<path d="M26.8897 50.0653H26.4721C26.4441 50.0653 26.4214 50.088 26.4214 50.116V50.3261C26.4214 50.354 26.4441 50.3767 26.4721 50.3767H26.8897C26.9177 50.3767 26.9404 50.354 26.9404 50.3261V50.116C26.9404 50.088 26.9177 50.0653 26.8897 50.0653Z" fill="#3F3D56"/>
<path d="M27.9276 50.0653H27.5099C27.4819 50.0653 27.4592 50.088 27.4592 50.116V50.3261C27.4592 50.354 27.4819 50.3767 27.5099 50.3767H27.9276C27.9556 50.3767 27.9783 50.354 27.9783 50.3261V50.116C27.9783 50.088 27.9556 50.0653 27.9276 50.0653Z" fill="#3F3D56"/>
<path d="M28.9657 50.0653H28.548C28.52 50.0653 28.4973 50.088 28.4973 50.116V50.3261C28.4973 50.354 28.52 50.3767 28.548 50.3767H28.9657C28.9937 50.3767 29.0163 50.354 29.0163 50.3261V50.116C29.0163 50.088 28.9937 50.0653 28.9657 50.0653Z" fill="#3F3D56"/>
<path d="M30.0038 50.0653H29.5861C29.5581 50.0653 29.5354 50.088 29.5354 50.116V50.3261C29.5354 50.354 29.5581 50.3767 29.5861 50.3767H30.0038C30.0317 50.3767 30.0544 50.354 30.0544 50.3261V50.116C30.0544 50.088 30.0317 50.0653 30.0038 50.0653Z" fill="#3F3D56"/>
<path d="M31.0419 50.0653H30.6242C30.5962 50.0653 30.5735 50.088 30.5735 50.116V50.3261C30.5735 50.354 30.5962 50.3767 30.6242 50.3767H31.0419C31.0699 50.3767 31.0926 50.354 31.0926 50.3261V50.116C31.0926 50.088 31.0699 50.0653 31.0419 50.0653Z" fill="#3F3D56"/>
<path d="M32.0799 50.0653H31.6622C31.6343 50.0653 31.6116 50.088 31.6116 50.116V50.3261C31.6116 50.354 31.6343 50.3767 31.6622 50.3767H32.0799C32.1079 50.3767 32.1306 50.354 32.1306 50.3261V50.116C32.1306 50.088 32.1079 50.0653 32.0799 50.0653Z" fill="#3F3D56"/>
<path d="M33.118 50.0653H32.7003C32.6723 50.0653 32.6497 50.088 32.6497 50.116V50.3261C32.6497 50.354 32.6723 50.3767 32.7003 50.3767H33.118C33.146 50.3767 33.1687 50.354 33.1687 50.3261V50.116C33.1687 50.088 33.146 50.0653 33.118 50.0653Z" fill="#3F3D56"/>
<path d="M34.1561 50.0653H33.7384C33.7104 50.0653 33.6877 50.088 33.6877 50.116V50.3261C33.6877 50.354 33.7104 50.3767 33.7384 50.3767H34.1561C34.1841 50.3767 34.2068 50.354 34.2068 50.3261V50.116C34.2068 50.088 34.1841 50.0653 34.1561 50.0653Z" fill="#3F3D56"/>
<path d="M35.1942 50.0653H34.7765C34.7485 50.0653 34.7258 50.088 34.7258 50.116V50.3261C34.7258 50.354 34.7485 50.3767 34.7765 50.3767H35.1942C35.2222 50.3767 35.2449 50.354 35.2449 50.3261V50.116C35.2449 50.088 35.2222 50.0653 35.1942 50.0653Z" fill="#3F3D56"/>
<path d="M36.2323 50.0653H35.8146C35.7866 50.0653 35.7639 50.088 35.7639 50.116V50.3261C35.7639 50.354 35.7866 50.3767 35.8146 50.3767H36.2323C36.2603 50.3767 36.2829 50.354 36.2829 50.3261V50.116C36.2829 50.088 36.2603 50.0653 36.2323 50.0653Z" fill="#3F3D56"/>
<path d="M37.2704 50.0653H36.8527C36.8247 50.0653 36.802 50.088 36.802 50.116V50.3261C36.802 50.354 36.8247 50.3767 36.8527 50.3767H37.2704C37.2983 50.3767 37.321 50.354 37.321 50.3261V50.116C37.321 50.088 37.2983 50.0653 37.2704 50.0653Z" fill="#3F3D56"/>
<path d="M38.3082 50.0653H37.8905C37.8625 50.0653 37.8398 50.088 37.8398 50.116V50.3261C37.8398 50.354 37.8625 50.3767 37.8905 50.3767H38.3082C38.3362 50.3767 38.3589 50.354 38.3589 50.3261V50.116C38.3589 50.088 38.3362 50.0653 38.3082 50.0653Z" fill="#3F3D56"/>
<path d="M31.3533 50.6881H27.3024C27.2744 50.6881 27.2517 50.7108 27.2517 50.7388V50.9489C27.2517 50.9769 27.2744 50.9996 27.3024 50.9996H31.3533C31.3813 50.9996 31.404 50.9769 31.404 50.9489V50.7388C31.404 50.7108 31.3813 50.6881 31.3533 50.6881Z" fill="#3F3D56"/>
<path d="M42.8458 25.6066H16.3416C16.3141 25.606 16.2879 25.5946 16.2686 25.5749C16.2493 25.5552 16.2385 25.5287 16.2385 25.5012C16.2385 25.4736 16.2493 25.4471 16.2686 25.4274C16.2879 25.4077 16.3141 25.3964 16.3416 25.3958H42.8458C42.8734 25.3964 42.8996 25.4077 42.9189 25.4274C42.9381 25.4471 42.9489 25.4736 42.9489 25.5012C42.9489 25.5287 42.9381 25.5552 42.9189 25.5749C42.8996 25.5946 42.8734 25.606 42.8458 25.6066V25.6066Z" fill="#3F3D56"/>
<path d="M18.1458 24.8576C18.4869 24.8576 18.7635 24.5749 18.7635 24.2262C18.7635 23.8774 18.4869 23.5947 18.1458 23.5947C17.8046 23.5947 17.5281 23.8774 17.5281 24.2262C17.5281 24.5749 17.8046 24.8576 18.1458 24.8576Z" fill="#3F3D56"/>
<path d="M20.2798 24.8576C20.6209 24.8576 20.8975 24.5749 20.8975 24.2262C20.8975 23.8774 20.6209 23.5947 20.2798 23.5947C19.9387 23.5947 19.6621 23.8774 19.6621 24.2262C19.6621 24.5749 19.9387 24.8576 20.2798 24.8576Z" fill="#3F3D56"/>
<path d="M22.4136 24.8576C22.7547 24.8576 23.0313 24.5749 23.0313 24.2262C23.0313 23.8774 22.7547 23.5947 22.4136 23.5947C22.0725 23.5947 21.7959 23.8774 21.7959 24.2262C21.7959 24.5749 22.0725 24.8576 22.4136 24.8576Z" fill="#3F3D56"/>
<path d="M41.5608 23.7509H40.0452C40.0152 23.7516 39.9867 23.764 39.9658 23.7854C39.9448 23.8068 39.9331 23.8356 39.9331 23.8656C39.9331 23.8955 39.9448 23.9243 39.9658 23.9458C39.9867 23.9672 40.0152 23.9796 40.0452 23.9803H41.5608C41.5909 23.9799 41.6197 23.9676 41.6408 23.9461C41.662 23.9247 41.6739 23.8957 41.6739 23.8656C41.6739 23.8354 41.662 23.8065 41.6408 23.785C41.6197 23.7636 41.5909 23.7513 41.5608 23.7509Z" fill="#3F3D56"/>
<path d="M41.5608 24.1817H40.0453C40.0153 24.1823 39.9868 24.1947 39.9658 24.2161C39.9448 24.2376 39.9331 24.2664 39.9331 24.2964C39.9331 24.3264 39.9448 24.3551 39.9658 24.3766C39.9868 24.398 40.0153 24.4104 40.0453 24.4111H41.5608C41.591 24.4107 41.6199 24.3985 41.6411 24.377C41.6623 24.3555 41.6742 24.3265 41.6742 24.2964C41.6742 24.2662 41.6623 24.2372 41.6411 24.2157C41.6199 24.1943 41.591 24.182 41.5608 24.1817V24.1817Z" fill="#3F3D56"/>
<path d="M41.5608 24.6125H40.0452C40.0152 24.6132 39.9867 24.6255 39.9658 24.647C39.9448 24.6684 39.9331 24.6972 39.9331 24.7272C39.9331 24.7571 39.9448 24.7859 39.9658 24.8073C39.9867 24.8288 40.0152 24.8412 40.0452 24.8419H41.5608C41.5909 24.8414 41.6197 24.8292 41.6408 24.8077C41.662 24.7862 41.6739 24.7573 41.6739 24.7272C41.6739 24.697 41.662 24.6681 41.6408 24.6466C41.6197 24.6252 41.5909 24.6129 41.5608 24.6125V24.6125Z" fill="#3F3D56"/>
<path d="M18.627 28.056H18.0824C17.9173 28.056 17.7834 28.1899 17.7834 28.355C17.7834 28.5201 17.9173 28.654 18.0824 28.654H18.627C18.7921 28.654 18.9259 28.5201 18.9259 28.355C18.9259 28.1899 18.7921 28.056 18.627 28.056Z" fill="#E6E6E6"/>
<path d="M24.8555 28.056H24.3109C24.1458 28.056 24.012 28.1899 24.012 28.355C24.012 28.5201 24.1458 28.654 24.3109 28.654H24.8555C25.0206 28.654 25.1545 28.5201 25.1545 28.355C25.1545 28.1899 25.0206 28.056 24.8555 28.056Z" fill="#E6E6E6"/>
<path d="M26.6202 28.056H26.0756C25.9105 28.056 25.7766 28.1899 25.7766 28.355C25.7766 28.5201 25.9105 28.654 26.0756 28.654H26.6202C26.7853 28.654 26.9191 28.5201 26.9191 28.355C26.9191 28.1899 26.7853 28.056 26.6202 28.056Z" fill="#E6E6E6"/>
<path d="M23.1612 28.0062H19.7765C19.6114 28.0062 19.4775 28.1401 19.4775 28.3052C19.4775 28.4703 19.6114 28.6041 19.7765 28.6041H23.1612C23.3263 28.6041 23.4601 28.4703 23.4601 28.3052C23.4601 28.1401 23.3263 28.0062 23.1612 28.0062Z" fill="#E6E6E6"/>
<path d="M31.4658 28.0062H28.0812C27.9161 28.0062 27.7822 28.1401 27.7822 28.3052C27.7822 28.4703 27.9161 28.6041 28.0812 28.6041H31.4658C31.6309 28.6041 31.7648 28.4703 31.7648 28.3052C31.7648 28.1401 31.6309 28.0062 31.4658 28.0062Z" fill="#E6E6E6"/>
<path d="M20.2879 29.4055H19.7433C19.5782 29.4055 19.4443 29.5394 19.4443 29.7045C19.4443 29.8696 19.5782 30.0035 19.7433 30.0035H20.2879C20.453 30.0035 20.5868 29.8696 20.5868 29.7045C20.5868 29.5394 20.453 29.4055 20.2879 29.4055Z" fill="#E6E6E6"/>
<path d="M26.5164 29.4055H25.9718C25.8067 29.4055 25.6729 29.5394 25.6729 29.7045C25.6729 29.8696 25.8067 30.0035 25.9718 30.0035H26.5164C26.6815 30.0035 26.8154 29.8696 26.8154 29.7045C26.8154 29.5394 26.6815 29.4055 26.5164 29.4055Z" fill="#E6E6E6"/>
<path d="M28.281 29.4055H27.7365C27.5713 29.4055 27.4375 29.5394 27.4375 29.7045C27.4375 29.8696 27.5713 30.0035 27.7365 30.0035H28.281C28.4462 30.0035 28.58 29.8696 28.58 29.7045C28.58 29.5394 28.4462 29.4055 28.281 29.4055Z" fill="#E6E6E6"/>
<path d="M24.8221 29.3557H21.4374C21.2723 29.3557 21.1384 29.4895 21.1384 29.6546C21.1384 29.8198 21.2723 29.9536 21.4374 29.9536H24.8221C24.9872 29.9536 25.121 29.8198 25.121 29.6546C25.121 29.4895 24.9872 29.3557 24.8221 29.3557Z" fill="#E6E6E6"/>
<path d="M33.1268 29.3557H29.7421C29.577 29.3557 29.4431 29.4895 29.4431 29.6546C29.4431 29.8198 29.577 29.9536 29.7421 29.9536H33.1268C33.2919 29.9536 33.4257 29.8198 33.4257 29.6546C33.4257 29.4895 33.2919 29.3557 33.1268 29.3557Z" fill="#E6E6E6"/>
<path d="M21.9488 30.755H21.4042C21.2391 30.755 21.1052 30.8889 21.1052 31.054C21.1052 31.2191 21.2391 31.3529 21.4042 31.3529H21.9488C22.1139 31.3529 22.2477 31.2191 22.2477 31.054C22.2477 30.8889 22.1139 30.755 21.9488 30.755Z" fill="#E6E6E6"/>
<path d="M28.1773 30.755H27.6327C27.4676 30.755 27.3337 30.8889 27.3337 31.054C27.3337 31.2191 27.4676 31.3529 27.6327 31.3529H28.1773C28.3424 31.3529 28.4762 31.2191 28.4762 31.054C28.4762 30.8889 28.3424 30.755 28.1773 30.755Z" fill="#E6E6E6"/>
<path d="M29.9419 30.755H29.3973C29.2322 30.755 29.0984 30.8889 29.0984 31.054C29.0984 31.2191 29.2322 31.3529 29.3973 31.3529H29.9419C30.107 31.3529 30.2409 31.2191 30.2409 31.054C30.2409 30.8889 30.107 30.755 29.9419 30.755Z" fill="#E6E6E6"/>
<path d="M26.483 30.7052H23.0983C22.9332 30.7052 22.7993 30.839 22.7993 31.0041C22.7993 31.1692 22.9332 31.3031 23.0983 31.3031H26.483C26.6481 31.3031 26.7819 31.1692 26.7819 31.0041C26.7819 30.839 26.6481 30.7052 26.483 30.7052Z" fill="#E6E6E6"/>
<path d="M34.7876 30.7052H31.403C31.2379 30.7052 31.104 30.839 31.104 31.0041C31.104 31.1692 31.2379 31.3031 31.403 31.3031H34.7876C34.9528 31.3031 35.0866 31.1692 35.0866 31.0041C35.0866 30.839 34.9528 30.7052 34.7876 30.7052Z" fill="#E6E6E6"/>
<path d="M23.6097 32.1045H23.0651C22.9 32.1045 22.7661 32.2383 22.7661 32.4034C22.7661 32.5686 22.9 32.7024 23.0651 32.7024H23.6097C23.7748 32.7024 23.9086 32.5686 23.9086 32.4034C23.9086 32.2383 23.7748 32.1045 23.6097 32.1045Z" fill="#E6E6E6"/>
<path d="M29.8382 32.1045H29.2936C29.1285 32.1045 28.9946 32.2383 28.9946 32.4034C28.9946 32.5686 29.1285 32.7024 29.2936 32.7024H29.8382C30.0033 32.7024 30.1371 32.5686 30.1371 32.4034C30.1371 32.2383 30.0033 32.1045 29.8382 32.1045Z" fill="#E6E6E6"/>
<path d="M31.6028 32.1045H31.0582C30.8931 32.1045 30.7593 32.2383 30.7593 32.4034C30.7593 32.5686 30.8931 32.7024 31.0582 32.7024H31.6028C31.7679 32.7024 31.9018 32.5686 31.9018 32.4034C31.9018 32.2383 31.7679 32.1045 31.6028 32.1045Z" fill="#E6E6E6"/>
<path d="M28.1438 32.0547H24.7592C24.5941 32.0547 24.4602 32.1885 24.4602 32.3536C24.4602 32.5187 24.5941 32.6526 24.7592 32.6526H28.1438C28.309 32.6526 28.4428 32.5187 28.4428 32.3536C28.4428 32.1885 28.309 32.0547 28.1438 32.0547Z" fill="#E6E6E6"/>
<path d="M24.8555 37.4706H24.3109C24.1458 37.4706 24.012 37.6045 24.012 37.7696C24.012 37.9347 24.1458 38.0685 24.3109 38.0685H24.8555C25.0206 38.0685 25.1545 37.9347 25.1545 37.7696C25.1545 37.6045 25.0206 37.4706 24.8555 37.4706Z" fill="#E6E6E6"/>
<path d="M26.6202 37.4706H26.0756C25.9105 37.4706 25.7766 37.6045 25.7766 37.7696C25.7766 37.9347 25.9105 38.0685 26.0756 38.0685H26.6202C26.7853 38.0685 26.9191 37.9347 26.9191 37.7696C26.9191 37.6045 26.7853 37.4706 26.6202 37.4706Z" fill="#E6E6E6"/>
<path d="M31.4658 37.5204H28.0812C27.9161 37.5204 27.7822 37.6543 27.7822 37.8194C27.7822 37.9845 27.9161 38.1184 28.0812 38.1184H31.4658C31.6309 38.1184 31.7648 37.9845 31.7648 37.8194C31.7648 37.6543 31.6309 37.5204 31.4658 37.5204Z" fill="#E6E6E6"/>
<path d="M18.627 37.4706H18.0824C17.9173 37.4706 17.7834 37.6045 17.7834 37.7696C17.7834 37.9347 17.9173 38.0685 18.0824 38.0685H18.627C18.7921 38.0685 18.9259 37.9347 18.9259 37.7696C18.9259 37.6045 18.7921 37.4706 18.627 37.4706Z" fill="#E6E6E6"/>
<path d="M23.1612 37.5204H19.7765C19.6114 37.5204 19.4775 37.6543 19.4775 37.8194C19.4775 37.9845 19.6114 38.1184 19.7765 38.1184H23.1612C23.3263 38.1184 23.4601 37.9845 23.4601 37.8194C23.4601 37.6543 23.3263 37.5204 23.1612 37.5204Z" fill="#E6E6E6"/>
<path d="M20.2879 36.1211H19.7433C19.5782 36.1211 19.4443 36.255 19.4443 36.4201C19.4443 36.5852 19.5782 36.719 19.7433 36.719H20.2879C20.453 36.719 20.5868 36.5852 20.5868 36.4201C20.5868 36.255 20.453 36.1211 20.2879 36.1211Z" fill="#E6E6E6"/>
<path d="M26.5164 36.1211H25.9718C25.8067 36.1211 25.6729 36.255 25.6729 36.4201C25.6729 36.5852 25.8067 36.719 25.9718 36.719H26.5164C26.6815 36.719 26.8154 36.5852 26.8154 36.4201C26.8154 36.255 26.6815 36.1211 26.5164 36.1211Z" fill="#E6E6E6"/>
<path d="M28.281 36.1211H27.7365C27.5713 36.1211 27.4375 36.255 27.4375 36.4201C27.4375 36.5852 27.5713 36.719 27.7365 36.719H28.281C28.4462 36.719 28.58 36.5852 28.58 36.4201C28.58 36.255 28.4462 36.1211 28.281 36.1211Z" fill="#E6E6E6"/>
<path d="M24.8221 36.171H21.4374C21.2723 36.171 21.1384 36.3048 21.1384 36.4699C21.1384 36.635 21.2723 36.7689 21.4374 36.7689H24.8221C24.9872 36.7689 25.121 36.635 25.121 36.4699C25.121 36.3048 24.9872 36.171 24.8221 36.171Z" fill="#E6E6E6"/>
<path d="M21.9488 34.7716H21.4042C21.2391 34.7716 21.1052 34.9055 21.1052 35.0706C21.1052 35.2357 21.2391 35.3696 21.4042 35.3696H21.9488C22.1139 35.3696 22.2477 35.2357 22.2477 35.0706C22.2477 34.9055 22.1139 34.7716 21.9488 34.7716Z" fill="#E6E6E6"/>
<path d="M28.1773 34.7716H27.6327C27.4676 34.7716 27.3337 34.9055 27.3337 35.0706C27.3337 35.2357 27.4676 35.3696 27.6327 35.3696H28.1773C28.3424 35.3696 28.4762 35.2357 28.4762 35.0706C28.4762 34.9055 28.3424 34.7716 28.1773 34.7716Z" fill="#E6E6E6"/>
<path d="M29.9419 34.7716H29.3973C29.2322 34.7716 29.0984 34.9055 29.0984 35.0706C29.0984 35.2357 29.2322 35.3696 29.3973 35.3696H29.9419C30.107 35.3696 30.2409 35.2357 30.2409 35.0706C30.2409 34.9055 30.107 34.7716 29.9419 34.7716Z" fill="#E6E6E6"/>
<path d="M26.483 34.8215H23.0983C22.9332 34.8215 22.7993 34.9553 22.7993 35.1204C22.7993 35.2856 22.9332 35.4194 23.0983 35.4194H26.483C26.6481 35.4194 26.7819 35.2856 26.7819 35.1204C26.7819 34.9553 26.6481 34.8215 26.483 34.8215Z" fill="#E6E6E6"/>
<path d="M23.6097 33.4221H23.0651C22.9 33.4221 22.7661 33.556 22.7661 33.7211C22.7661 33.8862 22.9 34.0201 23.0651 34.0201H23.6097C23.7748 34.0201 23.9086 33.8862 23.9086 33.7211C23.9086 33.556 23.7748 33.4221 23.6097 33.4221Z" fill="#E6E6E6"/>
<path d="M29.8382 33.4221H29.2936C29.1285 33.4221 28.9946 33.556 28.9946 33.7211C28.9946 33.8862 29.1285 34.0201 29.2936 34.0201H29.8382C30.0033 34.0201 30.1371 33.8862 30.1371 33.7211C30.1371 33.556 30.0033 33.4221 29.8382 33.4221Z" fill="#E6E6E6"/>
<path d="M31.6028 33.4221H31.0582C30.8931 33.4221 30.7593 33.556 30.7593 33.7211C30.7593 33.8862 30.8931 34.0201 31.0582 34.0201H31.6028C31.7679 34.0201 31.9018 33.8862 31.9018 33.7211C31.9018 33.556 31.7679 33.4221 31.6028 33.4221Z" fill="#E6E6E6"/>
<path d="M28.1438 33.472H24.7592C24.5941 33.472 24.4602 33.6059 24.4602 33.771C24.4602 33.9361 24.5941 34.0699 24.7592 34.0699H28.1438C28.309 34.0699 28.4428 33.9361 28.4428 33.771C28.4428 33.6059 28.309 33.472 28.1438 33.472Z" fill="#E6E6E6"/>
<path d="M43.1636 56.9658C43.1002 56.9979 43.0359 57.0301 42.9725 57.0613C41.3324 57.8813 40.0203 58.3474 38.2255 58.8581C38.0739 57.1661 37.9276 54.1921 37.7854 52.3485C37.748 51.8699 37.7106 51.4682 37.6743 51.1848C37.6651 51.0341 37.6344 50.8855 37.5829 50.7436L37.5892 51.1848L37.6047 52.3485L37.695 59.0035C35.4624 59.5942 33.169 59.9248 30.8604 59.9886C30.74 59.9917 30.6217 59.9938 30.5075 59.9959C30.467 59.9969 30.4276 59.9979 30.3881 59.9979C30.2584 59.999 30.1296 60 29.9999 60C27.5671 60.0018 25.1431 59.708 22.7812 59.1249C22.8321 57.4505 22.8829 54.5097 22.9317 52.3485C22.9421 51.926 22.9514 51.5325 22.9618 51.1848C22.9816 50.4415 23.0023 49.9059 23.022 49.7263C23.0046 49.7581 22.991 49.7919 22.9816 49.827C22.8854 50.2746 22.8199 50.7283 22.7854 51.1848C22.749 51.5325 22.7127 51.926 22.6764 52.3485C22.4833 54.5938 22.2819 57.6467 22.0743 58.9412C20.8385 58.6038 19.626 58.1867 18.4442 57.6924C17.8213 57.4329 17.2096 57.153 16.6089 56.8526C16.7231 56.1052 16.8424 55.2675 16.9649 54.3986C17.0604 53.7249 17.1591 53.0325 17.2598 52.3485C17.4155 51.2917 17.5753 50.2557 17.7373 49.3433C17.9739 48.0104 18.2168 46.9391 18.4577 46.4471C18.686 45.9799 18.9144 45.519 19.1355 45.0779C19.2123 44.9232 19.2892 44.7706 19.3639 44.6221C19.3816 44.5869 19.3992 44.5526 19.4168 44.5183C19.5757 44.2059 19.7293 43.9069 19.8757 43.6266C20.0013 43.3869 20.1207 43.1606 20.2338 42.9519C20.5078 42.4453 20.7404 42.0415 20.9127 41.7862C21.6331 40.6934 22.7056 39.8798 23.9521 39.4806L23.9833 39.4723L24.0051 39.4817L26.1279 38.8298L26.4383 38.7343L26.6469 38.6699L27.3819 38.1104L27.7816 37.8062L28.1563 37.5208L28.8892 36.9633L33.4265 37.2426L34.3099 39.3695L36.2885 40.0931L36.3227 40.0775L36.3528 40.0651L36.384 40.0734C37.6303 40.4729 38.7027 41.2864 39.4234 42.3789C39.521 42.5253 39.6393 42.7183 39.7732 42.9519C39.8874 43.1502 40.012 43.3765 40.1469 43.6266C40.339 43.9827 40.5487 44.3844 40.7708 44.8194C40.8196 44.9149 40.8694 45.0125 40.9193 45.1111C41.0117 45.2938 41.1054 45.4803 41.2006 45.6706C41.4217 46.1118 41.6501 46.5727 41.8784 47.0408C42.0767 47.4467 42.277 48.2813 42.4743 49.3433C42.6373 50.2256 42.7992 51.2658 42.9559 52.3485C43.1615 53.7519 42.9424 55.4325 43.1283 56.7239C43.1397 56.8059 43.1521 56.8858 43.1636 56.9658Z" fill="#3F3D56"/>
<path d="M30.0638 35.2655C32.9782 35.2655 35.3409 32.9029 35.3409 29.9884C35.3409 27.0739 32.9782 24.7113 30.0638 24.7113C27.1493 24.7113 24.7866 27.0739 24.7866 29.9884C24.7866 32.9029 27.1493 35.2655 30.0638 35.2655Z" fill="#A0616A"/>
<path d="M38.7665 22.9951C38.6622 22.7516 38.5234 22.5244 38.3544 22.3204C37.553 21.3415 36.0956 20.9107 34.5997 22.0692C34.3118 22.0049 34.0116 22.0221 33.7329 22.119C33.6014 22.1667 33.4781 22.2346 33.3675 22.3204C33.141 22.4971 32.9643 22.7296 32.8547 22.9951C32.7962 23.1354 32.7577 23.2832 32.7406 23.4342C32.3708 23.2421 31.9794 23.0947 31.5748 22.9951C30.582 22.7482 29.5438 22.7482 28.5509 22.9951C28.2328 23.0756 27.9264 23.1971 27.6395 23.3564C27.1537 23.6367 26.8745 23.9906 26.8246 24.3841C26.1239 24.4235 25.3952 24.792 24.8523 25.3962C24.7911 25.4637 24.7319 25.5342 24.6769 25.6069C24.2203 26.2043 23.975 26.9364 23.9793 27.6882V27.8201H24.1111C24.4723 27.8197 24.8302 27.8895 25.1648 28.0256C25.3816 28.1127 25.5869 28.226 25.7762 28.363C25.9 28.4508 26.017 28.548 26.126 28.6536C26.3789 28.8984 26.5931 29.1802 26.7613 29.4893C27.1926 30.2704 27.3421 31.176 27.1848 32.0543C27.1488 32.2576 27.096 32.4576 27.0271 32.6522C26.929 32.93 26.7998 33.1957 26.6419 33.4443C26.6357 33.4536 26.6305 33.463 26.6243 33.4723C26.5547 33.5834 26.4883 33.6965 26.426 33.8107C26.3793 33.8958 26.3357 33.983 26.2952 34.0702C26.1769 34.3129 26.077 34.5642 25.9963 34.8218C25.8518 35.2775 25.7667 35.7499 25.743 36.2273C25.7357 36.354 25.7336 36.4806 25.7378 36.6073C25.744 36.9337 25.7797 37.2589 25.8447 37.5789C25.854 37.6225 25.8634 37.6651 25.8727 37.7087L25.9485 38.0398L26.1281 38.8298L26.2527 39.3737L26.3679 39.8782L26.5381 39.6343C26.5963 39.5512 26.7426 39.2959 26.9388 38.9346C27.0686 38.699 27.2191 38.4177 27.3821 38.1104C27.6094 37.6796 27.8585 37.199 28.1025 36.7194C28.2011 36.5253 28.2987 36.3322 28.3932 36.1433C28.5717 35.7851 28.7399 35.4395 28.8842 35.1322C29.017 34.8488 29.1302 34.5976 29.2143 34.3962C29.2402 34.528 29.262 34.6619 29.2786 34.7969C29.2973 34.9339 29.3108 35.073 29.3181 35.2121C29.3201 35.2329 29.3212 35.2547 29.3222 35.2754L29.3264 35.3606L29.3274 35.3855L29.4374 35.4C30.0721 35.468 30.7119 35.4728 31.3475 35.4145H31.3485C32.1905 35.3512 33.0166 35.151 33.7942 34.8218C34.2358 34.6302 34.6482 34.3772 35.0191 34.0703C35.1924 33.9268 35.3542 33.7699 35.5028 33.6011C35.5402 33.5585 35.5765 33.5159 35.6118 33.4723C35.8173 33.2199 35.9932 32.9447 36.1361 32.6523C36.2318 32.4593 36.313 32.2594 36.379 32.0543C36.7776 30.8471 36.7547 29.3408 36.3105 27.5512C36.4305 27.5281 36.5454 27.4838 36.6499 27.4204C36.9759 27.2242 37.2022 26.835 37.2727 26.3595L37.3849 26.3896C37.7823 26.2045 38.1363 25.9378 38.424 25.6069C38.4809 25.5395 38.5343 25.4692 38.5838 25.3962C39.0914 24.6488 39.0956 23.7519 38.7665 22.9951Z" fill="#2F2E41"/>
<path opacity="0.2" d="M21.4172 49.3387L22.2993 45.9347L23.0781 48.872L21.4172 49.3387Z" fill="black"/>
<path d="M44.8889 47.1208C44.5734 51.4682 44.9004 53.3824 43.1585 56.9668C41.5736 57.7425 39.9228 58.3755 38.2256 58.8581C38.0491 58.908 37.8723 58.9564 37.6952 59.0035C35.4626 59.5942 33.1691 59.9248 30.8606 59.9886C30.7401 59.9917 30.6218 59.9938 30.5076 59.9959C30.4671 59.9969 30.4277 59.9979 30.3882 59.9979C30.2585 59.999 30.1298 60 30 60C27.5672 60.0018 25.1432 59.708 22.7813 59.1249C22.5447 59.0668 22.309 59.0055 22.0744 58.9412C20.8387 58.6038 19.6261 58.1867 18.4443 57.6924C17.8215 57.4329 17.2097 57.153 16.609 56.8526C16.473 56.7841 16.337 56.7156 16.2031 56.645C15.5149 55.4346 15.1235 53.9626 15.1152 52.1938C15.5917 49.146 43.8363 44.4924 44.8889 47.1208Z" fill="#2F2E41"/>
<path opacity="0.2" d="M44.888 47.8653C44.9041 47.5961 44.9221 47.3181 44.9432 47.0286C43.8906 44.4002 15.6459 49.0539 15.1694 52.1016C15.1707 52.381 15.1827 52.6522 15.2028 52.9169C16.3567 49.9088 43.1895 45.4859 44.888 47.8653Z" fill="black"/>
<path d="M16.9304 35.5175C16.9373 35.4234 16.9239 35.3289 16.8912 35.2403C16.8585 35.1518 16.8072 35.0713 16.7408 35.0043C16.6744 34.9373 16.5944 34.8852 16.5061 34.8517C16.4179 34.8182 16.3236 34.804 16.2294 34.81C16.1943 34.8113 16.1594 34.8157 16.1251 34.823L11.9975 35.7555C11.9053 35.7778 11.8188 35.8193 11.7435 35.8771C11.6683 35.9349 11.606 36.0079 11.5606 36.0913C11.5001 36.0936 11.44 36.1023 11.3813 36.1174C11.2529 36.1465 11.1314 36.2006 11.0239 36.2766C10.9164 36.3527 10.8249 36.4492 10.7546 36.5606C10.6844 36.672 10.6368 36.7962 10.6145 36.926C10.5923 37.0558 10.5958 37.1887 10.6249 37.3171C10.654 37.4456 10.7082 37.567 10.7842 37.6746C10.8603 37.7821 10.9567 37.8736 11.0682 37.9438C11.2932 38.0857 11.5653 38.1323 11.8247 38.0735C11.9724 38.0393 12.1105 37.9725 12.229 37.8779L13.6277 41.8164C13.6975 41.9398 13.8055 42.0373 13.9353 42.0943C14.0652 42.1513 14.21 42.1648 14.3482 42.1326L17.0314 41.5262C17.1685 41.4941 17.2919 41.4194 17.3839 41.3128C17.4758 41.2062 17.5316 41.0731 17.5433 40.9328L16.9304 35.5175ZM11.7628 37.7932C11.5775 37.8349 11.3832 37.8016 11.2225 37.7003C11.0618 37.5991 10.9478 37.4383 10.9056 37.2531C10.8633 37.068 10.8961 36.8736 10.9969 36.7127C11.0977 36.5517 11.2582 36.4373 11.4433 36.3945C11.4563 36.3912 11.4693 36.3945 11.4824 36.3912C11.4814 36.51 11.5118 36.627 11.5704 36.7303L12.0823 37.6236C11.9932 37.7081 11.8827 37.7667 11.7628 37.7932Z" fill="#2F2E41"/>
<path d="M16.2293 34.81C16.2685 35.3316 15.3751 35.9315 14.1786 36.1695C13.0799 36.3945 12.0953 36.238 11.8181 35.8272C11.8738 35.7941 11.9343 35.7699 11.9975 35.7555L16.125 34.823C16.1593 34.8157 16.1942 34.8113 16.2293 34.81V34.81Z" fill="#3F3D56"/>
<path d="M13.3747 48.0524L15.6931 46.8932L13.7611 41.6769L13.252 39.0463C13.1858 38.7045 13.0311 38.3861 12.8034 38.1228C12.5756 37.8595 12.2827 37.6607 11.954 37.5461C11.6253 37.4314 11.2723 37.4051 10.9302 37.4697C10.5881 37.5343 10.269 37.6875 10.0047 37.914V37.914C9.61299 38.2497 9.36707 38.7245 9.31879 39.2381C9.27052 39.7517 9.42367 40.2639 9.74593 40.6668L11.636 43.0293L13.3747 48.0524Z" fill="#A0616A"/>
<path d="M15.6932 45.9273L12.6021 47.4729L14.9479 54.8233C15.1164 55.3511 15.4184 55.8265 15.8246 56.2032C16.2308 56.58 16.7275 56.8454 17.2665 56.9738V56.9738C17.9311 57.132 18.6288 57.0745 19.2585 56.8095C19.8882 56.5445 20.4172 56.0859 20.7687 55.5L26.9892 44.8377C27.4301 44.103 27.5661 43.225 27.3684 42.3913C27.1706 41.5577 26.6547 40.8343 25.9309 40.3759V40.3759C25.5416 40.1293 25.1047 39.9675 24.6487 39.901C24.1927 39.8344 23.7278 39.8646 23.2843 39.9896C22.8407 40.1146 22.4285 40.3316 22.0743 40.6265C21.7202 40.9213 21.4321 41.2874 21.2288 41.701L17.432 49.7913L15.6932 45.9273Z" fill="#3F3D56"/>
<path d="M14.7371 39.2846C14.7313 39.2846 14.7256 39.2836 14.7202 39.2817L14.0453 39.0494C14.0371 39.0466 14.0298 39.0418 14.024 39.0355C14.0181 39.0291 14.014 39.0214 14.0118 39.0131C14.0097 39.0047 14.0097 38.996 14.0118 38.9876C14.014 38.9793 14.0181 38.9716 14.024 38.9652L14.5259 38.4187C14.5305 38.4137 14.5361 38.4096 14.5422 38.4067C14.5484 38.4038 14.5551 38.4021 14.5619 38.4018C14.5688 38.4015 14.5756 38.4026 14.582 38.4049C14.5884 38.4072 14.5943 38.4108 14.5994 38.4154C14.6044 38.4201 14.6085 38.4256 14.6113 38.4318C14.6142 38.438 14.6158 38.4447 14.6161 38.4515C14.6164 38.4584 14.6153 38.4652 14.613 38.4716C14.6106 38.478 14.607 38.4839 14.6023 38.4889L14.154 38.977L14.7539 39.1836C14.7656 39.1876 14.7754 39.1956 14.7817 39.2061C14.7879 39.2167 14.7903 39.2291 14.7883 39.2412C14.7862 39.2533 14.78 39.2643 14.7706 39.2723C14.7612 39.2802 14.7493 39.2846 14.7371 39.2846V39.2846Z" fill="#F98826"/>
<path d="M15.6622 39.0952C15.6518 39.0952 15.6417 39.0921 15.6331 39.0864C15.6246 39.0806 15.6179 39.0724 15.614 39.0628C15.6102 39.0532 15.6092 39.0427 15.6114 39.0326C15.6135 39.0224 15.6186 39.0132 15.6261 39.006L16.0822 38.5649L15.4695 38.3124C15.4631 38.3098 15.4574 38.306 15.4526 38.3012C15.4477 38.2964 15.4439 38.2907 15.4413 38.2844C15.4386 38.2781 15.4373 38.2714 15.4373 38.2645C15.4372 38.2577 15.4386 38.251 15.4412 38.2447C15.4438 38.2383 15.4476 38.2326 15.4524 38.2278C15.4572 38.223 15.4629 38.2191 15.4692 38.2165C15.4755 38.2139 15.4823 38.2126 15.4891 38.2126C15.4959 38.2126 15.5027 38.2139 15.509 38.2165L16.1951 38.4992C16.203 38.5025 16.2101 38.5077 16.2155 38.5144C16.221 38.5211 16.2247 38.529 16.2263 38.5375C16.2279 38.5459 16.2274 38.5547 16.2248 38.5629C16.2222 38.5711 16.2176 38.5785 16.2114 38.5845L15.6982 39.0806C15.6886 39.09 15.6756 39.0952 15.6622 39.0952V39.0952Z" fill="#F98826"/>
<path d="M14.8786 39.6021C14.8734 39.6021 14.8683 39.6013 14.8633 39.5997C14.8568 39.5977 14.8507 39.5945 14.8455 39.5901C14.8402 39.5858 14.8359 39.5804 14.8327 39.5744C14.8295 39.5684 14.8275 39.5618 14.8269 39.555C14.8262 39.5482 14.827 39.5414 14.829 39.5348L15.308 37.9778C15.3121 37.9646 15.3212 37.9537 15.3334 37.9473C15.3456 37.9409 15.3598 37.9396 15.3729 37.9436C15.386 37.9477 15.397 37.9568 15.4034 37.9689C15.4099 37.981 15.4113 37.9952 15.4073 38.0084L14.9282 39.5655C14.9249 39.5761 14.9183 39.5853 14.9094 39.5919C14.9005 39.5985 14.8897 39.6021 14.8786 39.6021V39.6021Z" fill="#F98826"/>
</g>
<defs>
<clipPath id="clip0_109_128">
<rect width="60" height="60" fill="white"/>
</clipPath>
</defs>
</svg>
