<svg width="16" height="20" viewBox="0 0 16 20" fill="none" xmlns="http://www.w3.org/2000/svg">
<path d="M8.48074 0C4.3694 0 0.306152 2.74089 0.306152 7.17681C0.306152 9.99784 1.89298 11.6007 2.8547 11.6007C3.25141 11.6007 3.47982 10.4947 3.47982 10.1822C3.47982 9.80951 2.53012 9.01609 2.53012 7.46532C2.53012 4.24357 4.9825 1.9595 8.15616 1.9595C10.885 1.9595 12.9046 3.51026 12.9046 6.35935C12.9046 8.48715 12.0511 12.4783 9.28618 12.4783C8.2884 12.4783 7.43487 11.757 7.43487 10.7231C7.43487 9.20843 8.49276 7.74182 8.49276 6.17903C8.49276 3.52629 4.73005 4.00715 4.73005 7.21287C4.73005 7.88607 4.8142 8.6314 5.11473 9.2445C4.56175 11.6247 3.43173 15.1711 3.43173 17.6234C3.43173 18.3808 3.53992 19.1261 3.61205 19.8835C3.7483 20.0358 3.68017 20.0197 3.88855 19.9436C5.90815 17.1787 5.83602 16.6377 6.74965 13.0192C7.24253 13.9569 8.5168 14.4618 9.52661 14.4618C13.7822 14.4618 15.6936 10.3144 15.6936 6.57574C15.6936 2.59663 12.2555 0 8.48074 0Z" fill="#888888"/>
</svg>
