<svg width="20" height="16" viewBox="0 0 20 16" fill="none" xmlns="http://www.w3.org/2000/svg">
<path d="M19.5821 3.16905C19.3521 2.30296 18.6744 1.62086 17.8139 1.38938C16.2542 0.96875 10 0.96875 10 0.96875C10 0.96875 3.74586 0.96875 2.18613 1.38938C1.32565 1.6209 0.647936 2.30296 0.417919 3.16905C0 4.73889 0 8.0142 0 8.0142C0 8.0142 0 11.2895 0.417919 12.8593C0.647936 13.7254 1.32565 14.3791 2.18613 14.6106C3.74586 15.0312 10 15.0312 10 15.0312C10 15.0312 16.2541 15.0312 17.8139 14.6106C18.6744 14.3791 19.3521 13.7254 19.5821 12.8593C20 11.2895 20 8.0142 20 8.0142C20 8.0142 20 4.73889 19.5821 3.16905V3.16905ZM7.95453 10.9879V5.04046L13.1818 8.01427L7.95453 10.9879V10.9879Z" fill="#888888"/>
</svg>
